<svg width="287" height="70" viewBox="0 0 287 70" fill="none" xmlns="http://www.w3.org/2000/svg">
<path d="M286.679 16.5C286.679 16.55 286.654 16.575 286.604 16.575C285.604 19.675 284.454 22.825 283.154 26.025C281.904 29.175 281.004 32.375 280.454 35.625C281.004 38.625 281.854 41.725 283.004 44.925C284.154 48.125 285.079 51.175 285.779 54.075C285.529 54.025 285.304 54 285.104 54C284.904 54 284.679 54 284.429 54C283.879 54 283.279 54.025 282.629 54.075C281.979 54.075 281.354 54.075 280.754 54.075C280.554 54.075 280.154 54.075 279.554 54.075C279.004 54.075 278.404 54.075 277.754 54.075C277.154 54.025 276.554 54 275.954 54C275.404 53.95 275.054 53.9 274.904 53.85H274.829C274.429 53 274.079 52.075 273.779 51.075C273.529 50.025 273.279 48.975 273.029 47.925C272.779 46.875 272.504 45.85 272.204 44.85C271.954 43.8 271.629 42.85 271.229 42V41.925C270.329 43.925 269.654 46.025 269.204 48.225C268.754 50.375 268.104 52.35 267.254 54.15C267.054 54.15 266.704 54.15 266.204 54.15C265.704 54.15 265.154 54.15 264.554 54.15C263.954 54.2 263.379 54.225 262.829 54.225C262.329 54.225 261.979 54.225 261.779 54.225C260.979 54.225 260.029 54.2 258.929 54.15C257.879 54.15 257.029 54.025 256.379 53.775C256.729 52.475 257.154 51.075 257.654 49.575C258.204 48.025 258.754 46.475 259.304 44.925C259.854 43.325 260.379 41.725 260.879 40.125C261.379 38.525 261.804 37 262.154 35.55C261.554 32.45 260.629 29.3 259.379 26.1C258.179 22.9 257.004 19.8 255.854 16.8C258.104 16.65 259.854 16.575 261.104 16.575C261.554 16.575 262.129 16.575 262.829 16.575C263.579 16.575 264.279 16.575 264.929 16.575C265.629 16.575 266.229 16.6 266.729 16.65C267.229 16.7 267.504 16.75 267.554 16.8C267.754 17.55 268.004 18.525 268.304 19.725C268.654 20.875 268.979 22.075 269.279 23.325C269.629 24.525 269.954 25.7 270.254 26.85C270.554 28 270.829 28.9 271.079 29.55C271.379 28.85 271.679 27.95 271.979 26.85C272.329 25.7 272.654 24.5 272.954 23.25C273.304 22 273.604 20.8 273.854 19.65C274.154 18.45 274.429 17.475 274.679 16.725C275.129 16.675 275.804 16.65 276.704 16.65C277.654 16.6 278.679 16.575 279.779 16.575C280.929 16.525 282.104 16.5 283.304 16.5C284.504 16.5 285.604 16.5 286.604 16.5H286.679Z" fill="#FFBD1D"/>
<path d="M237.064 35.4749C235.964 35.4249 235.164 35.3499 234.664 35.2499V36.5999C234.714 38.0999 234.764 39.3249 234.814 40.2749C234.914 41.2249 235.239 42.1499 235.789 43.0499C236.389 44.1999 237.239 45.0499 238.339 45.5999C239.439 46.1499 240.514 46.3249 241.564 46.1249C242.614 45.9249 243.489 45.3249 244.189 44.3249C244.939 43.2749 245.264 41.7249 245.164 39.6749C245.664 39.7249 246.339 39.7499 247.189 39.7499C248.039 39.6999 248.914 39.6499 249.814 39.5999C250.764 39.5499 251.664 39.5499 252.514 39.5999C253.364 39.5999 254.064 39.6749 254.614 39.8249C254.514 41.1249 254.414 42.3999 254.314 43.6499C254.214 44.8999 254.089 46.0749 253.939 47.1749C253.789 48.2249 253.589 49.1499 253.339 49.9499C253.139 50.6999 252.864 51.2249 252.514 51.5249C251.664 52.7249 250.564 53.5749 249.214 54.0749C247.864 54.5749 246.389 54.8749 244.789 54.9749C243.189 55.0749 241.539 55.0749 239.839 54.9749C238.189 54.8749 236.664 54.8249 235.264 54.8249C233.864 54.6249 232.564 54.1749 231.364 53.4749C230.014 52.5249 228.889 51.2999 227.989 49.7999C227.089 48.2499 226.364 46.5749 225.814 44.7749C225.264 42.9249 224.889 40.9749 224.689 38.9249C224.489 36.8749 224.439 34.8249 224.539 32.7749C224.689 30.9249 224.839 29.1499 224.989 27.4499C225.189 25.6999 225.589 23.9999 226.189 22.3499C226.839 20.8999 227.839 19.6749 229.189 18.6749C230.539 17.6249 232.064 16.8499 233.764 16.3499C235.464 15.7999 237.264 15.4999 239.164 15.4499C241.064 15.3999 242.914 15.5999 244.714 16.0499C247.014 16.4499 248.864 17.2499 250.264 18.4499C251.664 19.6499 252.714 21.0999 253.414 22.7999C254.164 24.4999 254.614 26.3749 254.764 28.4249C254.914 30.4749 254.914 32.5499 254.764 34.6499C254.414 34.7499 253.739 34.8499 252.739 34.9499C251.789 35.0499 250.639 35.1499 249.289 35.2499C247.989 35.3499 246.589 35.4249 245.089 35.4749C243.589 35.5249 242.139 35.5499 240.739 35.5499C239.389 35.5499 238.164 35.5249 237.064 35.4749ZM245.839 25.6499C245.339 24.7499 244.639 24.0749 243.739 23.6249C243.339 23.3749 242.939 23.1999 242.539 23.0999C242.139 22.9499 241.664 22.8749 241.114 22.8749C239.914 22.8749 238.939 22.9999 238.189 23.2499C237.439 23.4999 236.839 23.8499 236.389 24.2999C235.939 24.7499 235.589 25.2749 235.339 25.8749C235.139 26.4749 234.989 27.0999 234.889 27.7499C234.789 28.2999 234.739 28.6999 234.739 28.9499C234.789 29.1499 235.039 29.2999 235.489 29.3999C235.939 29.4499 236.639 29.4749 237.589 29.4749C238.589 29.4249 240.039 29.3999 241.939 29.3999C243.239 29.3999 244.214 29.4249 244.864 29.4749C245.514 29.5249 245.964 29.5499 246.214 29.5499C246.514 29.4999 246.664 29.4249 246.664 29.3249C246.664 29.1749 246.664 28.8999 246.664 28.4999C246.664 27.4999 246.389 26.5499 245.839 25.6499Z" fill="#FFBD1D"/>
<path d="M212.658 3.9C214.158 5.05 215.358 6.35 216.258 7.8C217.358 9.5 218.258 11.275 218.958 13.125C219.708 14.925 220.308 16.825 220.758 18.825C221.008 19.625 221.158 20.425 221.208 21.225C221.308 21.975 221.383 22.75 221.433 23.55C221.333 25.9 221.233 28.275 221.133 30.675C221.083 33.025 220.833 35.35 220.383 37.65C220.383 37.7 220.358 37.725 220.308 37.725C220.308 37.725 220.308 37.75 220.308 37.8C219.308 40.75 217.933 43.55 216.183 46.2C214.483 48.85 212.683 51.35 210.783 53.7C207.483 53.8 204.158 53.875 200.808 53.925C197.458 53.925 194.208 53.925 191.058 53.925C191.058 53.925 191.033 53.95 190.983 54C190.433 50.05 190.083 45.975 189.933 41.775C189.783 37.525 189.708 33.225 189.708 28.875C189.708 24.525 189.733 20.15 189.783 15.75C189.883 11.3 189.883 6.9 189.783 2.55C189.833 2.5 189.858 2.45 189.858 2.4C189.908 2.35 189.958 2.3 190.008 2.25C191.408 1.9 192.858 1.675 194.358 1.575C195.908 1.425 197.458 1.375 199.008 1.425C200.558 1.425 202.083 1.45 203.583 1.5C205.133 1.55 206.633 1.55 208.083 1.5C209.683 1.9 211.208 2.7 212.658 3.9ZM208.308 36.375C208.708 35.925 209.058 35.475 209.358 35.025C210.208 33.725 210.808 32.3 211.158 30.75C211.558 29.2 211.558 27.5 211.158 25.65C211.008 24.9 210.833 24.125 210.633 23.325C210.433 22.475 210.133 21.675 209.733 20.925C209.383 20.175 208.933 19.525 208.383 18.975C207.833 18.375 207.133 17.925 206.283 17.625C205.433 17.525 204.508 17.475 203.508 17.475C202.508 17.425 201.558 17.5 200.658 17.7H200.508H200.433V18C200.533 19.35 200.583 20.8 200.583 22.35C200.583 23.9 200.558 25.525 200.508 27.225C200.458 28.875 200.433 30.575 200.433 32.325C200.433 34.025 200.483 35.725 200.583 37.425C201.133 37.925 201.883 38.15 202.833 38.1C203.833 38.05 204.783 37.975 205.683 37.875C205.933 37.925 206.158 37.9 206.358 37.8C206.558 37.65 206.783 37.525 207.033 37.425C207.533 37.125 207.958 36.775 208.308 36.375Z" fill="#FFBD1D"/>
<path d="M165.618 18.7502C165.618 19.3002 165.643 19.9252 165.693 20.6252C165.943 20.4752 166.243 20.3002 166.593 20.1002C166.993 19.9002 167.318 19.7002 167.568 19.5002C168.618 18.7502 169.793 18.1502 171.093 17.7002C172.393 17.2502 173.718 17.0002 175.068 16.9502C176.468 16.9002 177.818 17.0502 179.118 17.4002C180.418 17.7502 181.593 18.3752 182.643 19.2752C183.143 19.7252 183.518 20.6752 183.768 22.1252C184.068 23.5252 184.243 25.2252 184.293 27.2252C184.393 29.2252 184.418 31.4252 184.368 33.8252C184.368 36.1752 184.343 38.5752 184.293 41.0252C184.243 43.4252 184.193 45.7502 184.143 48.0002C184.093 50.2502 184.118 52.2252 184.218 53.9252C182.468 54.1752 180.893 54.2752 179.493 54.2252C178.143 54.2252 176.593 54.2252 174.843 54.2252C174.743 53.0752 174.693 51.7752 174.693 50.3252C174.693 48.8752 174.693 47.3752 174.693 45.8252C174.743 44.2752 174.743 42.7252 174.693 41.1752C174.693 39.6252 174.643 38.1752 174.543 36.8252C174.493 36.2252 174.443 35.5752 174.393 34.8752C174.343 34.1252 174.243 33.4002 174.093 32.7002C173.993 32.0002 173.818 31.3752 173.568 30.8252C173.368 30.2752 173.068 29.8502 172.668 29.5502C172.618 29.5002 172.568 29.4752 172.518 29.4752C172.468 29.4752 172.418 29.4502 172.368 29.4002C171.968 29.2002 171.368 29.0502 170.568 28.9502C169.818 28.8002 169.068 28.8502 168.318 29.1002C167.568 29.3002 166.893 29.7502 166.293 30.4502C165.693 31.1002 165.343 32.1002 165.243 33.4502C165.143 35.2002 165.118 36.9252 165.168 38.6252C165.218 40.2752 165.268 41.9502 165.318 43.6502C165.418 45.3002 165.468 46.9502 165.468 48.6002C165.468 50.2502 165.368 51.9002 165.168 53.5502V53.8502C164.318 54.1002 163.568 54.2502 162.918 54.3002C162.318 54.3502 161.693 54.3502 161.043 54.3002C160.393 54.3002 159.668 54.2752 158.868 54.2252C158.068 54.1752 157.068 54.2002 155.868 54.3002C155.868 48.1502 155.793 42.0002 155.643 35.8502C155.543 29.7002 155.593 23.3252 155.793 16.7252C156.393 16.7752 156.893 16.8252 157.293 16.8752C157.693 16.8752 158.068 16.8752 158.418 16.8752C158.768 16.8752 159.143 16.8752 159.543 16.8752C159.943 16.8252 160.443 16.7752 161.043 16.7252C161.243 16.7252 161.593 16.7002 162.093 16.6502C162.593 16.5502 163.093 16.4752 163.593 16.4252C164.093 16.3752 164.543 16.3752 164.943 16.4252C165.343 16.4252 165.543 16.5002 165.543 16.6502C165.643 17.5002 165.668 18.2002 165.618 18.7502Z" fill="#FFBD1D"/>
<path d="M122.1 22.1254C122.4 21.1754 122.625 20.4254 122.775 19.8754C123.125 19.1254 123.675 18.4754 124.425 17.9254C125.225 17.3754 126.125 16.9254 127.125 16.5754C128.175 16.1754 129.275 15.9004 130.425 15.7504C131.625 15.6004 132.825 15.5254 134.025 15.5254C135.025 15.6254 135.975 15.6504 136.875 15.6004C137.825 15.5004 138.825 15.5004 139.875 15.6004C141.475 15.7004 143 16.0254 144.45 16.5754C145.9 17.0754 147.15 17.8254 148.2 18.8254C148.9 19.2754 149.45 20.0004 149.85 21.0004C150.25 22.0004 150.55 23.1754 150.75 24.5254C150.95 25.8254 151.075 27.2754 151.125 28.8754C151.175 30.4254 151.225 32.0254 151.275 33.6754C151.225 35.1254 151.15 36.7754 151.05 38.6254C151 40.4754 150.875 42.2504 150.675 43.9504C150.525 45.6504 150.3 47.1754 150 48.5254C149.75 49.8754 149.375 50.8004 148.875 51.3004C148.025 52.5004 146.9 53.3504 145.5 53.8504C144.15 54.3504 142.675 54.6504 141.075 54.7504C139.475 54.9004 137.825 54.9004 136.125 54.7504C134.425 54.6504 132.875 54.6004 131.475 54.6004C128.925 54.1504 126.775 53.0504 125.025 51.3004C123.675 50.1004 122.75 48.6004 122.25 46.8004C121.75 45.0004 121.45 43.1254 121.35 41.1754C121.25 39.1754 121.225 37.1754 121.275 35.1754C121.375 33.1754 121.35 31.3504 121.2 29.7004C121.2 28.8004 121.225 27.9254 121.275 27.0754C121.325 26.1754 121.425 25.2504 121.575 24.3004C121.625 23.7504 121.8 23.0254 122.1 22.1254ZM134.7 27.0754C133.65 27.3754 132.8 27.9254 132.15 28.7254C131.85 28.9254 131.625 29.4254 131.475 30.2254C131.275 31.8254 131.175 33.4254 131.175 35.0254C131.175 36.5754 131.125 38.2254 131.025 39.9754C130.975 41.1254 131.275 42.0254 131.925 42.6754C132.575 43.2754 133.35 43.7004 134.25 43.9504C135.2 44.1504 136.175 44.2004 137.175 44.1004C138.175 43.9504 139 43.7004 139.65 43.3504C140.5 42.9504 141.075 42.1254 141.375 40.8754C141.575 39.2754 141.725 37.6754 141.825 36.0754C141.975 34.4254 141.9 32.8754 141.6 31.4254C141.35 29.6754 140.625 28.4004 139.425 27.6004C138.225 26.8004 136.65 26.6254 134.7 27.0754Z" fill="#FFBD1D"/>
<path d="M111.598 16.35C112.748 16.4 114.123 16.4 115.723 16.35H116.998V16.575C116.948 22.625 116.823 28.8 116.623 35.1C116.473 41.4 116.573 47.575 116.923 53.625C116.673 53.925 116.048 54.075 115.048 54.075C114.048 54.125 112.948 54.125 111.748 54.075C110.598 54.075 109.498 54.05 108.448 54C107.398 53.95 106.698 53.975 106.348 54.075C106.598 50.925 106.698 47.725 106.648 44.475C106.648 41.225 106.598 38 106.498 34.8C106.398 31.6 106.348 28.45 106.348 25.35C106.348 22.2 106.498 19.15 106.798 16.2V16.125C106.998 16.075 107.323 16.075 107.773 16.125C108.273 16.175 108.648 16.2 108.898 16.2C109.548 16.25 110.448 16.3 111.598 16.35ZM106.573 5.85C106.473 4.25 106.448 2.3 106.498 0L116.698 0.224997C116.698 0.524999 116.698 1.075 116.698 1.875C116.748 2.625 116.773 3.475 116.773 4.425C116.823 5.325 116.848 6.275 116.848 7.275C116.898 8.225 116.923 9.075 116.923 9.825C116.723 10.125 116.248 10.325 115.498 10.425C114.798 10.525 113.948 10.575 112.948 10.575C111.998 10.525 110.973 10.475 109.873 10.425C108.773 10.325 107.748 10.3 106.798 10.35C106.798 8.9 106.723 7.4 106.573 5.85Z" fill="#FFBD1D"/>
<path d="M78.9877 34.8754C78.9877 35.3254 78.9877 35.8004 78.9877 36.3004V36.9754C78.9877 39.5254 79.7377 41.7004 81.2377 43.5004C82.1377 44.6004 83.3377 45.2754 84.8377 45.5254C86.3377 45.7254 87.7377 45.6254 89.0377 45.2254C89.4877 45.0754 89.8377 44.8504 90.0877 44.5504C90.3377 44.2004 90.5377 43.8254 90.6877 43.4254C90.8377 42.9754 90.9377 42.5254 90.9877 42.0754C91.0877 41.5754 91.1627 41.1004 91.2127 40.6504C91.2127 38.6504 91.1627 36.6254 91.0627 34.5754C91.0127 32.4754 90.7377 30.4754 90.2377 28.5754C89.9377 27.8254 89.4377 27.2504 88.7377 26.8504C88.0877 26.4004 87.3627 26.1254 86.5627 26.0254C85.7627 25.9254 84.9627 26.0004 84.1627 26.2504C83.4127 26.4504 82.7377 26.8004 82.1377 27.3004C81.3877 28.1504 80.7377 29.1004 80.1877 30.1504C79.6877 31.1504 79.3377 32.2254 79.1377 33.3754C79.0377 33.8754 78.9877 34.3754 78.9877 34.8754ZM93.9127 68.7754C93.2127 68.9254 92.5627 69.0254 91.9627 69.0754C91.4627 69.1754 90.5627 69.2004 89.2627 69.1504C87.9627 69.1004 86.2877 69.0754 84.2377 69.0754C81.8877 69.0754 79.7877 68.5754 77.9377 67.5754C76.0877 66.5754 74.5877 65.2254 73.4377 63.5254C73.2377 63.1754 73.0377 62.7004 72.8377 62.1004C72.6877 61.5504 72.5377 60.9754 72.3877 60.3754C72.2877 59.7754 72.2127 59.2004 72.1627 58.6504C72.1627 58.1004 72.1877 57.6254 72.2377 57.2254C72.7377 57.0254 73.4127 56.8754 74.2627 56.7754C75.1127 56.7254 75.9877 56.7004 76.8877 56.7004C77.8377 56.7504 78.7377 56.8004 79.5877 56.8504C80.4877 56.9504 81.2377 57.0504 81.8377 57.1504C81.8377 58.4504 82.2377 59.4754 83.0377 60.2254C83.8877 61.0254 84.8127 61.4754 85.8127 61.5754C86.8627 61.6754 87.8627 61.4254 88.8127 60.8254C89.8127 60.2254 90.4627 59.2254 90.7627 57.8254C90.8127 57.3254 90.8627 56.8004 90.9127 56.2504C90.9627 55.7504 90.9627 55.3004 90.9127 54.9004C90.8127 54.0504 90.8127 53.1754 90.9127 52.2754C90.4127 52.8254 89.8127 53.2254 89.1127 53.4754C88.4627 53.7254 87.7377 53.9004 86.9377 54.0004C86.1877 54.1004 85.4127 54.1504 84.6127 54.1504C83.8127 54.1504 83.0627 54.1754 82.3627 54.2254C81.4127 54.2254 80.4377 54.1504 79.4377 54.0004C78.4877 53.8504 77.5627 53.6004 76.6627 53.2504C75.8127 52.9004 75.0377 52.4254 74.3377 51.8254C73.6377 51.2254 73.0627 50.4504 72.6127 49.5004C71.9127 48.1504 71.4127 46.7504 71.1127 45.3004C70.8127 43.8004 70.6127 42.2754 70.5127 40.7254C70.5127 38.3754 70.5627 35.8504 70.6627 33.1504C70.7627 30.4504 71.1877 27.9254 71.9377 25.5754C72.7377 23.1754 73.9877 21.1754 75.6877 19.5754C77.3877 17.9254 79.8377 17.0004 83.0377 16.8004C84.6377 16.7004 86.1127 16.9254 87.4627 17.4754C88.8627 17.9754 89.8627 18.9254 90.4627 20.3254C90.6627 20.4254 90.7627 20.3504 90.7627 20.1004C90.8127 19.8004 90.8127 19.4504 90.7627 19.0504C90.7627 18.6004 90.7377 18.1754 90.6877 17.7754C90.6877 17.3254 90.7627 16.9754 90.9127 16.7254C92.5627 16.5254 94.2377 16.4754 95.9377 16.5754C97.6377 16.6254 99.3377 16.6504 101.038 16.6504C101.238 22.9004 101.338 29.4504 101.338 36.3004C101.388 43.1004 101.263 50.1004 100.963 57.3004C100.913 58.5004 100.913 59.6754 100.963 60.8254C101.013 62.0254 100.788 63.0254 100.288 63.8254C99.5877 64.9254 98.8627 65.8004 98.1127 66.4504C97.4127 67.1004 96.7127 67.6004 96.0127 67.9504C95.3127 68.3504 94.6127 68.6254 93.9127 68.7754Z" fill="#FFBD1D"/>
<path d="M49.6375 35.4749C48.5375 35.4249 47.7375 35.3499 47.2375 35.2499V36.5999C47.2875 38.0999 47.3375 39.3249 47.3875 40.2749C47.4875 41.2249 47.8125 42.1499 48.3625 43.0499C48.9625 44.1999 49.8125 45.0499 50.9125 45.5999C52.0125 46.1499 53.0875 46.3249 54.1375 46.1249C55.1875 45.9249 56.0625 45.3249 56.7625 44.3249C57.5125 43.2749 57.8375 41.7249 57.7375 39.6749C58.2375 39.7249 58.9125 39.7499 59.7625 39.7499C60.6125 39.6999 61.4875 39.6499 62.3875 39.5999C63.3375 39.5499 64.2375 39.5499 65.0875 39.5999C65.9375 39.5999 66.6375 39.6749 67.1875 39.8249C67.0875 41.1249 66.9875 42.3999 66.8875 43.6499C66.7875 44.8999 66.6625 46.0749 66.5125 47.1749C66.3625 48.2249 66.1625 49.1499 65.9125 49.9499C65.7125 50.6999 65.4375 51.2249 65.0875 51.5249C64.2375 52.7249 63.1375 53.5749 61.7875 54.0749C60.4375 54.5749 58.9625 54.8749 57.3625 54.9749C55.7625 55.0749 54.1125 55.0749 52.4125 54.9749C50.7625 54.8749 49.2375 54.8249 47.8375 54.8249C46.4375 54.6249 45.1375 54.1749 43.9375 53.4749C42.5875 52.5249 41.4625 51.2999 40.5625 49.7999C39.6625 48.2499 38.9375 46.5749 38.3875 44.7749C37.8375 42.9249 37.4625 40.9749 37.2625 38.9249C37.0625 36.8749 37.0125 34.8249 37.1125 32.7749C37.2625 30.9249 37.4125 29.1499 37.5625 27.4499C37.7625 25.6999 38.1625 23.9999 38.7625 22.3499C39.4125 20.8999 40.4125 19.6749 41.7625 18.6749C43.1125 17.6249 44.6375 16.8499 46.3375 16.3499C48.0375 15.7999 49.8375 15.4999 51.7375 15.4499C53.6375 15.3999 55.4875 15.5999 57.2875 16.0499C59.5875 16.4499 61.4375 17.2499 62.8375 18.4499C64.2375 19.6499 65.2875 21.0999 65.9875 22.7999C66.7375 24.4999 67.1875 26.3749 67.3375 28.4249C67.4875 30.4749 67.4875 32.5499 67.3375 34.6499C66.9875 34.7499 66.3125 34.8499 65.3125 34.9499C64.3625 35.0499 63.2125 35.1499 61.8625 35.2499C60.5625 35.3499 59.1625 35.4249 57.6625 35.4749C56.1625 35.5249 54.7125 35.5499 53.3125 35.5499C51.9625 35.5499 50.7375 35.5249 49.6375 35.4749ZM58.4125 25.6499C57.9125 24.7499 57.2125 24.0749 56.3125 23.6249C55.9125 23.3749 55.5125 23.1999 55.1125 23.0999C54.7125 22.9499 54.2375 22.8749 53.6875 22.8749C52.4875 22.8749 51.5125 22.9999 50.7625 23.2499C50.0125 23.4999 49.4125 23.8499 48.9625 24.2999C48.5125 24.7499 48.1625 25.2749 47.9125 25.8749C47.7125 26.4749 47.5625 27.0999 47.4625 27.7499C47.3625 28.2999 47.3125 28.6999 47.3125 28.9499C47.3625 29.1499 47.6125 29.2999 48.0625 29.3999C48.5125 29.4499 49.2125 29.4749 50.1625 29.4749C51.1625 29.4249 52.6125 29.3999 54.5125 29.3999C55.8125 29.3999 56.7875 29.4249 57.4375 29.4749C58.0875 29.5249 58.5375 29.5499 58.7875 29.5499C59.0875 29.4999 59.2375 29.4249 59.2375 29.3249C59.2375 29.1749 59.2375 28.8999 59.2375 28.4999C59.2375 27.4999 58.9625 26.5499 58.4125 25.6499Z" fill="#FFBD1D"/>
<path d="M33.45 47.9253C34.55 49.8253 35.475 51.8003 36.225 53.8503H36.3C34.55 53.8503 32.6 53.9253 30.45 54.0753C28.3 54.1753 26.1 54.1503 23.85 54.0003H23.775C23.275 52.8503 22.65 51.4753 21.9 49.8753C21.15 48.2753 20.325 46.6003 19.425 44.8503C18.525 43.1003 17.55 41.3753 16.5 39.6753C15.45 37.9753 14.4 36.4753 13.35 35.1753L13.2 34.9503C13.05 36.1003 12.975 37.5253 12.975 39.2253C12.975 40.8753 13 42.6003 13.05 44.4003C13.15 46.1503 13.25 47.8253 13.35 49.4253C13.45 51.0253 13.525 52.3003 13.575 53.2503C12.725 53.6003 11.6 53.8253 10.2 53.9253C8.85 54.0253 7.5 54.0753 6.15 54.0753C4.8 54.1253 3.575 54.1253 2.475 54.0753C1.425 54.0253 0.775 54.0253 0.525 54.0753C0.625 54.0753 0.7 53.4003 0.75 52.0503C0.8 50.6503 0.825 48.8253 0.825 46.5753C0.825 44.3253 0.825 41.7503 0.825 38.8503C0.825 35.9003 0.8 32.8753 0.75 29.7753C0.75 26.6253 0.7 23.5253 0.6 20.4753C0.55 17.3753 0.5 14.5503 0.45 12.0003C0.4 9.40027 0.325 7.20027 0.225 5.40027C0.175 3.55027 0.1 2.30027 0 1.65027C2.8 1.25027 5.875 0.875274 9.225 0.525273C12.575 0.175274 16.075 0.200274 19.725 0.600271C22.675 0.750272 25.325 1.60027 27.675 3.15027C30.025 4.70028 31.85 6.62527 33.15 8.92527C34.45 11.2253 35.125 13.7753 35.175 16.5753C35.275 19.3253 34.55 22.0003 33 24.6003C32.05 26.4003 30.775 27.9003 29.175 29.1003C27.625 30.3003 25.65 30.9753 23.25 31.1253H22.95H22.875V31.2003C23.925 33.0503 25.075 34.9003 26.325 36.7503C27.575 38.5503 28.8 40.3753 30 42.2253C31.2 44.0753 32.35 45.9753 33.45 47.9253ZM16.125 11.0253C14.425 11.0753 12.7 11.4503 10.95 12.1503C11 12.8003 11.025 13.5503 11.025 14.4003C11.075 15.2003 11.1 16.0253 11.1 16.8753C11.1 17.7253 11.1 18.5503 11.1 19.3503C11.15 20.1503 11.225 20.8253 11.325 21.3753H11.4C12.55 21.4753 13.8 21.5503 15.15 21.6003C16.5 21.6503 17.775 21.5753 18.975 21.3753C19.925 21.1753 20.65 20.7003 21.15 19.9503C21.7 19.1503 22.025 18.3003 22.125 17.4003C22.225 16.4503 22.125 15.5253 21.825 14.6253C21.525 13.6753 21.025 12.9253 20.325 12.3753C19.225 11.3753 17.825 10.9253 16.125 11.0253Z" fill="#FFBD1D"/>
</svg>
